<svg width="2457" height="2928" viewBox="0 0 2457 2928" fill="none" xmlns="http://www.w3.org/2000/svg">
<g filter="url(#filter0_f_220_586)">
<path d="M880.015 526.757C984.328 506.201 1095.74 497.323 1207.04 500.699C1318.33 504.075 1427.03 519.629 1526.09 546.354C1625.15 573.08 1712.37 610.381 1782.09 655.841C1851.82 701.301 1902.49 753.906 1930.84 810.252C1959.18 866.597 1964.57 925.426 1946.64 982.928C1928.71 1040.43 1887.88 1095.32 1826.78 1144.05C1765.67 1192.78 1685.67 1234.26 1591.94 1265.81C1549.78 1279.99 1400.74 1341.15 1239.47 1404.96C1263.01 1403.41 1286.71 1402.31 1310.53 1401.67C1430.81 1398.43 1551.22 1406.95 1663.96 1426.68L1484.66 1647.36C1438.51 1639.29 1389.22 1635.8 1339.98 1637.12C1290.74 1638.45 1242.65 1644.56 1198.82 1655.06C1154.99 1665.56 1116.41 1680.22 1085.56 1698.08C1054.72 1715.94 1032.29 1736.61 1019.75 1758.75C1007.21 1780.89 1004.83 1804 1012.76 1826.6C1020.69 1849.19 1038.76 1870.76 1065.79 1889.9C1092.83 1909.05 1128.22 1925.35 1169.69 1937.74C1211.16 1950.14 1816.25 2191.42 1865 2194.93L1787.27 2428C1668.2 2419.45 995.842 2166.31 894.544 2136.03C793.246 2105.75 706.778 2065.94 640.74 2019.17C574.704 1972.4 530.569 1919.71 511.195 1864.52C491.822 1809.33 497.64 1752.86 528.275 1698.78C558.909 1644.7 613.678 1594.21 689.031 1550.58C708.372 1539.38 728.96 1528.7 750.689 1518.57L694 1327.17C739.102 1323.52 1298.98 1072.13 1337.35 1059.22C1375.72 1046.3 1408.47 1029.32 1433.49 1009.37C1458.5 989.426 1475.22 966.955 1482.55 943.416C1489.89 919.877 1487.69 895.795 1476.08 872.729C1464.48 849.664 1443.74 828.13 1415.19 809.52C1386.65 790.911 1350.95 775.641 1310.4 764.701C1269.85 753.761 1225.35 747.394 1179.79 746.012C1134.23 744.63 1088.62 748.264 1045.92 756.679L880.015 526.757Z" fill="black"/>
</g>
<defs>
<filter id="filter0_f_220_586" x="-0.000488281" y="0" width="2457" height="2928" filterUnits="userSpaceOnUse" color-interpolation-filters="sRGB">
<feFlood flood-opacity="0" result="BackgroundImageFix"/>
<feBlend mode="normal" in="SourceGraphic" in2="BackgroundImageFix" result="shape"/>
<feGaussianBlur stdDeviation="250" result="effect1_foregroundBlur_220_586"/>
</filter>
</defs>
</svg>
